<svg xmlns="http://www.w3.org/2000/svg" viewBox="0 0 512 512"><rect width="512" height="512" rx="120" fill="#0b0d0f"/><circle cx="256" cy="256" r="154" fill="none" stroke="#62d68a" stroke-width="18"/><circle cx="256" cy="256" r="92" fill="none" stroke="#62d68a" stroke-opacity=".55" stroke-width="12"/><path d="M256 78v356M78 256h356" stroke="#62d68a" stroke-opacity=".35" stroke-width="10"/><path d="M139 302c43-2 67-28 87-64 8-15 18-23 32-15l33 21c17 11 33 16 54 21l36 7c12 3 20 14 20 26 0 21-16 39-37 41l-161 16c-34 3-61-12-62-36l-2-17z" fill="#fff"/></svg>